<?xml version="1.0" encoding="utf-8"?>
<!-- Generator: Adobe Illustrator 24.2.0, SVG Export Plug-In . SVG Version: 6.00 Build 0)  -->
<svg version="1.1" id="Layer_1" xmlns="http://www.w3.org/2000/svg" xmlns:xlink="http://www.w3.org/1999/xlink" x="0px" y="0px"
	 width="256px" height="256px" viewBox="0 0 256 256" enable-background="new 0 0 256 256" xml:space="preserve">
<g>
	<path fill="#444444" d="M161.021,227.924H95.167c-17.557,0-31.842-14.283-31.842-31.842V94.729c0-6.413,1.676-12.732,4.847-18.269
		c2.098-3.664,4.331-6.022,6.127-7.914c0.587-0.621,1.099-1.159,1.544-1.674c-2.497-1.616-4.152-4.425-4.152-7.614
		c0-0.981,0.158-1.928,0.45-2.817c-0.212-0.691-0.354-1.412-0.412-2.156c-0.146-1.828,0.212-3.59,0.971-5.135
		c-0.533-1.087-0.871-2.284-0.971-3.542c-0.232-2.905,0.809-5.64,2.699-7.616c0.491-3.131,2.22-7.396,7.942-7.982
		c0.206-0.03,0.555-0.06,0.917-0.06h90.372c4.923,0,8.942,3.958,9.036,8.861c1.704,1.626,2.823,3.856,3.025,6.353
		c0.242,3.023-0.933,5.862-2.965,7.85c1.548,1.626,2.501,3.826,2.501,6.245c0,3.418-1.9,6.399-4.699,7.942
		c0.17,0.184,0.346,0.362,0.529,0.533l0,0c7.484,6.957,11.779,16.798,11.779,26.999v101.352
		C192.865,213.641,178.579,227.924,161.021,227.924z"/>
</g>
<g>
	<path fill="#C5E3E7" d="M176.656,72.493c-3.644-3.388-5.532-8.263-5.532-13.238l-86.15,0.084c0,4.959-1.876,9.822-5.5,13.208
		c-5.932,5.542-9.648,13.422-9.648,22.182v101.354c0,13.995,11.344,25.339,25.339,25.339h65.856
		c13.995,0,25.339-11.344,25.339-25.339V94.729C186.359,85.941,182.623,78.039,176.656,72.493z"/>
	<path fill="#BADCE0" d="M69.827,104.525v91.557c0,13.995,11.344,25.339,25.339,25.339h65.856c13.995,0,25.339-11.344,25.339-25.339
		v-91.557H69.827z"/>
	<path fill="#C5E3E7" d="M176.656,72.493c-3.644-3.388-5.532-8.263-5.532-13.238l-4.478,0.004c0.001,4.974,1.889,9.847,5.532,13.234
		c5.966,5.546,9.702,13.448,9.704,22.236v101.354c0,13.995-11.344,25.339-25.339,25.339h4.478c13.995,0,25.339-11.344,25.339-25.339
		V94.729C186.359,85.941,182.623,78.039,176.656,72.493z"/>
	<path fill="#D6EDF0" d="M144.34,196.082V94.729c0-8.787-3.738-16.692-9.702-22.236c-3.634-3.378-5.52-8.237-5.53-13.198
		l-44.133,0.042c0,4.959-1.876,9.822-5.5,13.208c-5.932,5.542-9.648,13.422-9.648,22.182v101.356
		c0,13.995,11.344,25.339,25.339,25.339h23.835C132.996,221.421,144.34,210.077,144.34,196.082z"/>
	<path fill="#E6F4F3" d="M81.345,186.865v-83.366c0-6.314-5.089-11.437-11.388-11.498c-0.08,0.899-0.13,1.806-0.13,2.726v101.356
		c0,0.769,0.04,1.529,0.107,2.28C76.244,198.314,81.345,193.186,81.345,186.865z"/>
	<path fill="#C5E3E7" d="M69.827,104.525v91.557c0,13.995,11.344,25.339,25.339,25.339h23.835c13.995,0,25.339-11.344,25.339-25.339
		v-91.557H69.827z"/>
	<g>
		<path fill="#ACCFD3" d="M114.832,160.85h-6.02c-0.933,0-1.689-0.756-1.689-1.689c0-0.933,0.756-1.689,1.689-1.689h6.02
			c0.891,0,1.048-0.157,1.048-1.048v-15.631c0-0.933,0.756-1.689,1.689-1.689c0.933,0,1.689,0.756,1.689,1.689v15.631
			C119.259,159.196,117.604,160.85,114.832,160.85z"/>
	</g>
	<g>
		<path fill="#ACCFD3" d="M130.039,160.851h-2.433c-2.194,0-3.889-1.116-4.772-3.143l-6.82-16.261
			c-0.361-0.86,0.044-1.85,0.904-2.211c0.859-0.36,1.85,0.043,2.211,0.904l6.811,16.239c0.335,0.77,0.821,1.092,1.666,1.092h2.433
			c0.845,0,1.329-0.322,1.671-1.111l6.867-16.283c0.312-0.74,1.103-1.159,1.891-0.999c0.788,0.159,1.354,0.852,1.354,1.656v15.691
			c0,0.933-0.756,1.689-1.689,1.689c-0.933,0-1.689-0.756-1.689-1.689v-7.338l-3.628,8.603
			C133.929,159.734,132.235,160.851,130.039,160.851z"/>
	</g>
	<g>
		<path fill="#ACCFD3" d="M148.891,160.851h-6.021c-2.771,0-4.426-1.655-4.426-4.426c0-0.933,0.756-1.689,1.689-1.689
			c0.933,0,1.689,0.756,1.689,1.689c0,0.891,0.157,1.048,1.048,1.048h6.021c0.891,0,1.048-0.157,1.048-1.048v-39.532
			c0-0.933,0.756-1.689,1.689-1.689c0.933,0,1.689,0.756,1.689,1.689v39.532C153.317,159.196,151.662,160.851,148.891,160.851z"/>
	</g>
	<path fill="#BADCE0" d="M174.66,70.256c-2.332-3.135-3.534-7.035-3.534-11l-86.15,0.084c0,3.93-1.181,7.796-3.474,10.918h93.157
		V70.256z"/>
	<path fill="#ACCFD3" d="M172.083,65.259c-0.633-1.92-0.959-3.952-0.959-6.002l-86.15,0.084c0,2.02-0.316,4.024-0.931,5.92h88.04
		V65.259z"/>
	<g>
		<path fill="#E6F4F3" d="M106.075,116.892c0-1.824,0.911-2.737,2.737-2.737h5.109c1.52,0,2.555,0.671,3.223,2.068l11.676,25.239
			l11.738-25.239c0.669-1.397,1.702-2.068,3.221-2.068h5.109c1.824,0,2.737,0.913,2.737,2.737v39.532
			c0,1.824-0.913,2.737-2.737,2.737h-6.02c-1.826,0-2.737-0.913-2.737-2.737v-15.691l-6.873,16.299
			c-0.607,1.397-1.702,2.128-3.221,2.128h-2.433c-1.522,0-2.615-0.731-3.223-2.128l-6.811-16.239v15.631
			c0,1.824-0.911,2.737-2.737,2.737h-6.02c-1.824,0-2.737-0.913-2.737-2.737v-39.532H106.075z"/>
	</g>
	<path fill="#ACCFD3" d="M166.267,219.283c-8.992-3.818-22.742-6.265-38.187-6.265s-29.193,2.447-38.187,6.265
		c-0.515,0.219-0.72,0.803-0.699,1.401c1.918,0.464,3.91,0.737,5.97,0.737h65.856c2.051,0,4.035-0.27,5.946-0.73
		C166.99,220.09,166.785,219.503,166.267,219.283z"/>
	<g>
		<path fill="#ACCFD3" d="M173.006,115.393c-1.866,0-3.379-1.513-3.379-3.379v-7.489c0-1.866,1.513-3.379,3.379-3.379
			c1.866,0,3.379,1.513,3.379,3.379v7.489C176.384,113.881,174.871,115.393,173.006,115.393z"/>
	</g>
	<path fill="none" stroke="#FFFFFF" stroke-width="3.3784" stroke-linecap="round" stroke-miterlimit="10" d="M106.075,156.424
		v-39.532c0-1.824,0.911-2.737,2.737-2.737h5.109c1.52,0,2.555,0.671,3.223,2.068"/>
	<path fill="none" stroke="#FFFFFF" stroke-width="3.3784" stroke-linecap="round" stroke-miterlimit="10" d="M132.619,134.349
		l7.938-18.123c0.669-1.397,1.702-2.068,3.221-2.068h5.109"/>
	<g>
		<g>
			<path fill="#C3D5DF" d="M176.196,56.698V49.31c1.831-0.179,3.188-1.787,3.041-3.628c-0.134-1.656-1.442-2.93-3.041-3.085v-3.612
				c0-1.399-1.135-2.535-2.535-2.535H83.287c-1.399,0-2.535,1.135-2.535,2.535v2.562c-1.571,0.396-2.675,1.868-2.543,3.536
				c0.117,1.48,1.178,2.65,2.543,2.995v2.152c-1.571,0.396-2.675,1.868-2.543,3.536c0.114,1.433,1.119,2.559,2.421,2.943
				c-1.356,0.065-2.437,1.175-2.437,2.547c0,1.413,1.145,2.559,2.559,2.559h95.442c1.413,0,2.559-1.145,2.559-2.559
				C178.753,57.844,177.608,56.699,176.196,56.698z"/>
		</g>
	</g>
</g>
<g>
	<path fill="#ACCFD3" d="M173.006,189.326c-1.866,0-3.379-1.513-3.379-3.379v-57.886c0-1.866,1.513-3.379,3.379-3.379
		c1.866,0,3.379,1.513,3.379,3.379v57.886C176.384,187.813,174.871,189.326,173.006,189.326z"/>
</g>
<g>
	<path fill="#99C0C2" d="M98.463,177.521c0-2.186,0-3.053-0.024-3.612h1.862c0.046,0.328,0.068,0.957,0.068,1.48
		c0.491-1.025,1.349-1.68,2.683-1.68c1.271,0,2.118,0.551,2.483,1.76c0.442-0.943,1.345-1.76,2.923-1.76
		c1.54,0,2.939,0.755,2.939,3.52v8.719h-1.918v-8.401c0-1.167-0.346-2.14-1.62-2.14c-1.452,0-1.95,1.259-1.95,2.853v7.688h-1.928
		v-8.353c0-1.416-0.47-2.178-1.594-2.178c-1.373,0-2,1.203-2,2.993v7.538h-1.928v-8.427H98.463z"/>
	<path fill="#99C0C2" d="M123.522,183.725c0,0.723,0.06,1.812,0.094,2.222h-1.772c-0.06-0.262-0.118-0.885-0.118-1.319
		c-0.446,0.939-1.331,1.534-2.821,1.534c-2.312,0-3.157-1.814-3.157-3.498c0-2.254,1.53-3.874,4.665-3.874
		c0.533,0,0.867,0,1.203,0.036v-1.548c0-0.895-0.16-2.012-1.71-2.012c-1.648,0-1.764,1.165-1.834,1.97h-1.862
		c0.048-1.73,0.873-3.526,3.764-3.526c2.387,0,3.546,1.141,3.546,3.378v6.637H123.522z M121.662,180.328
		c-0.296-0.048-0.611-0.06-1.135-0.06c-2.032,0-2.849,0.969-2.849,2.24c0,1.037,0.539,2.02,1.778,2.02
		c1.694,0,2.206-1.207,2.206-3.6V180.328z"/>
	<path fill="#99C0C2" d="M129.592,182.446c0.064,1.197,0.691,2.158,2.02,2.158c1.239,0,1.834-0.735,1.834-1.778
		c0-1.167-0.591-1.72-2.136-2.316c-2.555-0.973-3.277-1.884-3.277-3.578c0-1.614,0.999-3.233,3.538-3.233
		c2.779,0,3.548,1.894,3.56,3.49h-1.888c-0.026-0.545-0.14-1.932-1.73-1.932c-1.063,0-1.558,0.659-1.558,1.556
		c0,0.927,0.424,1.373,2.048,1.998c2.367,0.905,3.388,1.78,3.388,3.82c0,2.228-1.395,3.532-3.87,3.532
		c-2.563,0-3.796-1.54-3.848-3.716C127.672,182.446,129.592,182.446,129.592,182.446z"/>
	<path fill="#99C0C2" d="M147.685,179.795c0,4.261-1.46,6.377-4.224,6.377c-2.811,0-4.206-2.034-4.206-6.331
		c0-4.194,1.662-6.131,4.295-6.131C146.232,173.709,147.685,175.757,147.685,179.795z M141.231,179.843
		c0,3.141,0.741,4.665,2.262,4.665c1.504,0,2.218-1.54,2.218-4.669c0-2.999-0.701-4.455-2.23-4.455
		C142.017,175.382,141.231,176.714,141.231,179.843z"/>
	<path fill="#99C0C2" d="M152.23,177.637c0-2.467-0.014-3.155-0.024-3.728h1.872c0.034,0.294,0.07,0.777,0.07,1.516
		c0.394-0.885,1.203-1.726,2.815-1.726c1.786,0,3.093,1.041,3.093,3.67v8.581h-1.952v-8.181c0-1.418-0.434-2.361-1.754-2.361
		c-1.514,0-2.166,0.975-2.166,3.32v7.222h-1.952v-8.313H152.23z"/>
</g>
<path fill="#DCE2E8" d="M175.599,42.585l-42.011,3.361v-4.348c0,0.282-0.228,0.513-0.513,0.513c-0.282,0-0.513-0.228-0.513-0.513
	v-3.027c0-0.282,0.228-0.513,0.513-0.513c0.282,0,0.513,0.228,0.513,0.513V37.58h-3.472v0.479c0.284,0,0.513,0.228,0.513,0.513
	v3.027c0,0.282-0.228,0.513-0.513,0.513v4.113l-5.63,0.45v-5.076c0,0.282-0.23,0.513-0.513,0.513c-0.282,0-0.513-0.228-0.513-0.513
	v-3.027c0-0.282,0.228-0.513,0.513-0.513s0.513,0.228,0.513,0.513v-2.118H83.285V36.45c-1.399,0-2.533,1.135-2.533,2.535v2.562
	c-1.57,0.396-2.674,1.867-2.543,3.534l24.778-1.982c0.148,1.86-1.239,3.49-3.101,3.638l-18.041,1.444
	c-0.09,0.006-0.182,0.01-0.272,0.01c-0.289,0-0.567-0.049-0.836-0.119c0.006,0.001,0.01,0.005,0.016,0.007v2.152
	c-1.571,0.396-2.675,1.868-2.543,3.536l101.028-8.083c0-0.001,0-0.001,0-0.002C179.087,43.824,177.459,42.437,175.599,42.585z
	 M84.556,41.598c0,0.282-0.228,0.513-0.513,0.513c-0.282,0-0.513-0.228-0.513-0.513v-3.027c0-0.282,0.228-0.513,0.513-0.513
	c0.282,0,0.513,0.228,0.513,0.513V41.598z M87.628,41.598c0,0.282-0.228,0.513-0.513,0.513c-0.282,0-0.513-0.228-0.513-0.513v-3.027
	c0-0.282,0.228-0.513,0.513-0.513c0.282,0,0.513,0.228,0.513,0.513V41.598z M90.701,41.598c-0.002,0.282-0.23,0.513-0.513,0.513
	c-0.282,0-0.513-0.228-0.513-0.513v-3.027c0-0.282,0.228-0.513,0.513-0.513c0.282,0,0.513,0.228,0.513,0.513V41.598z M93.772,41.598
	c-0.002,0.282-0.23,0.513-0.513,0.513c-0.282,0-0.513-0.228-0.513-0.513v-3.027c0-0.282,0.228-0.513,0.513-0.513
	c0.282,0,0.513,0.228,0.513,0.513V41.598z M96.843,41.598c-0.002,0.282-0.23,0.513-0.513,0.513s-0.513-0.228-0.513-0.513v-3.027
	c0-0.282,0.228-0.513,0.513-0.513c0.282,0,0.513,0.228,0.513,0.513V41.598z M99.915,41.598c0,0.282-0.23,0.513-0.513,0.513
	c-0.282,0-0.513-0.228-0.513-0.513v-3.027c0-0.282,0.228-0.513,0.513-0.513c0.282,0,0.513,0.228,0.513,0.513V41.598z
	 M102.986,41.598c0,0.282-0.23,0.513-0.513,0.513c-0.282,0-0.513-0.228-0.513-0.513v-3.027c0-0.282,0.228-0.513,0.513-0.513
	c0.282,0,0.513,0.228,0.513,0.513V41.598z M106.057,41.598c0,0.282-0.228,0.513-0.513,0.513c-0.282,0-0.513-0.228-0.513-0.513
	v-3.027c0-0.282,0.228-0.513,0.513-0.513c0.282,0,0.513,0.228,0.513,0.513V41.598z M109.128,41.598c0,0.282-0.228,0.513-0.513,0.513
	c-0.282,0-0.513-0.228-0.513-0.513v-3.027c0-0.282,0.228-0.513,0.513-0.513c0.282,0,0.513,0.228,0.513,0.513V41.598z M112.2,41.598
	c0,0.282-0.228,0.513-0.513,0.513c-0.282,0-0.513-0.228-0.513-0.513v-3.027c0-0.282,0.228-0.513,0.513-0.513
	c0.284,0,0.513,0.228,0.513,0.513V41.598z M115.273,41.598c-0.002,0.282-0.23,0.513-0.513,0.513c-0.282,0-0.513-0.228-0.513-0.513
	v-3.027c0-0.282,0.228-0.513,0.513-0.513c0.282,0,0.513,0.228,0.513,0.513V41.598z M118.344,41.598
	c-0.002,0.282-0.23,0.513-0.513,0.513c-0.282,0-0.513-0.228-0.513-0.513v-3.027c0-0.282,0.228-0.513,0.513-0.513
	c0.284,0,0.513,0.228,0.513,0.513V41.598z M121.416,41.598c0,0.282-0.23,0.513-0.513,0.513c-0.282,0-0.513-0.228-0.513-0.513v-3.027
	c0-0.282,0.228-0.513,0.513-0.513c0.282,0,0.513,0.228,0.513,0.513V41.598z"/>
<path fill="#DCE2E8" d="M127.045,42.111c0.282,0,0.513-0.23,0.513-0.513v-3.027c0-0.284-0.23-0.513-0.513-0.513
	c-0.284,0-0.513,0.23-0.513,0.513v3.027C126.533,41.882,126.763,42.111,127.045,42.111z"/>
<path fill="#DCE2E8" d="M136.147,42.111c0.284,0,0.513-0.23,0.513-0.513v-3.027c0-0.284-0.23-0.513-0.513-0.513
	c-0.284,0-0.513,0.23-0.513,0.513v3.027C135.635,41.882,135.865,42.111,136.147,42.111z"/>
<path fill="#DCE2E8" d="M139.22,42.111c0.282,0,0.511-0.23,0.513-0.513v-3.027c0-0.284-0.228-0.513-0.513-0.513
	c-0.284,0-0.513,0.23-0.513,0.513v3.027C138.708,41.882,138.938,42.111,139.22,42.111z"/>
<path fill="#DCE2E8" d="M142.292,42.111c0.282,0,0.511-0.23,0.513-0.513v-3.027c0-0.284-0.228-0.513-0.513-0.513
	c-0.284,0-0.513,0.23-0.513,0.513v3.027C141.779,41.882,142.009,42.111,142.292,42.111z"/>
<path fill="#DCE2E8" d="M145.363,42.111c0.282,0,0.511-0.23,0.513-0.513v-3.027c0-0.284-0.23-0.513-0.513-0.513
	c-0.284,0-0.513,0.23-0.513,0.513v3.027C144.85,41.882,145.081,42.111,145.363,42.111z"/>
<path fill="#DCE2E8" d="M148.434,42.111c0.282,0,0.513-0.23,0.513-0.513v-3.027c0-0.284-0.23-0.513-0.513-0.513
	c-0.284,0-0.513,0.23-0.513,0.513v3.027C147.922,41.882,148.152,42.111,148.434,42.111z"/>
<path fill="#DCE2E8" d="M151.506,42.111c0.282,0,0.513-0.23,0.513-0.513v-3.027c0-0.284-0.228-0.513-0.513-0.513
	c-0.284,0-0.513,0.23-0.513,0.513v3.027C150.993,41.882,151.223,42.111,151.506,42.111z"/>
<path fill="#DCE2E8" d="M154.577,42.111c0.284,0,0.513-0.23,0.513-0.513v-3.027c0-0.284-0.228-0.513-0.513-0.513
	s-0.513,0.23-0.513,0.513v3.027C154.064,41.882,154.295,42.111,154.577,42.111z"/>
<path fill="#DCE2E8" d="M157.648,42.111c0.284,0,0.513-0.23,0.513-0.513v-3.027c0-0.284-0.23-0.513-0.513-0.513
	c-0.284,0-0.512,0.23-0.512,0.513v3.027C157.136,41.882,157.366,42.111,157.648,42.111z"/>
<path fill="#DCE2E8" d="M160.719,42.111c0.284,0,0.513-0.23,0.513-0.513v-3.027c0-0.284-0.23-0.513-0.513-0.513
	c-0.284,0-0.513,0.23-0.513,0.513v3.027C160.207,41.882,160.437,42.111,160.719,42.111z"/>
<path fill="#DCE2E8" d="M163.793,42.111c0.282,0,0.511-0.23,0.513-0.513v-3.027c0-0.284-0.228-0.513-0.513-0.513
	c-0.284,0-0.513,0.23-0.513,0.513v3.027C163.28,41.882,163.51,42.111,163.793,42.111z"/>
<path fill="#DCE2E8" d="M166.864,42.111c0.282,0,0.511-0.23,0.513-0.513v-3.027c0-0.284-0.228-0.513-0.513-0.513
	c-0.284,0-0.513,0.23-0.513,0.513v3.027C166.351,41.882,166.582,42.111,166.864,42.111z"/>
<path fill="#DCE2E8" d="M169.935,42.111c0.282,0,0.513-0.23,0.513-0.513v-3.027c0-0.284-0.23-0.513-0.513-0.513
	c-0.284,0-0.513,0.23-0.513,0.513v3.027C169.423,41.882,169.653,42.111,169.935,42.111z"/>
<path fill="#DCE2E8" d="M173.006,42.111c0.282,0,0.513-0.23,0.513-0.513v-3.027c0-0.284-0.23-0.513-0.513-0.513
	c-0.284,0-0.513,0.23-0.513,0.513v3.027C172.494,41.882,172.724,42.111,173.006,42.111z"/>
<path fill="#DCE2E8" d="M176.194,56.698h-42.605v-3.972l-3.472,0.278v3.694h-5.63v-3.243l-42.641,3.412
	c-0.09,0.006-0.182,0.01-0.272,0.01c-0.343,0-0.67-0.065-0.984-0.162c0,0,0,0,0,0c-1.336,0.085-2.396,1.185-2.396,2.542h100.559
	C178.753,57.843,177.607,56.698,176.194,56.698z"/>
<path fill="#D6EDF0" d="M69.827,104.525v91.557c0,0.769,0.04,1.529,0.107,2.28c6.31-0.048,11.411-5.177,11.411-11.498v-82.339
	H69.827z"/>
<rect x="81.345" y="55.422" fill="#C3D5DF" width="52.244" height="1.276"/>
</svg>
